<?xml version="1.0" encoding="utf-8"?>
<?xml-stylesheet type="text/xsl" href="rss1.xsl"?>
<rss version="2.0" xmlns:atom="http://www.w3.org/2005/Atom" xmlns:content="http://purl.org/rss/1.0/modules/content/" xmlns:dc="http://purl.org/dc/elements/1.1/" xmlns:media="http://search.yahoo.com/mrss/">
<channel>
 <title>Getty</title>
 <link>http://www.gettyimg.com/</link>
 <atom:link href="http://www.gettyimg.com/" rel="self" type="application/rss+xml" />

 
                <item>
                <title><![CDATA[【Cinema Center】MOVIE - Star.Wars.Episodio.II.L.Attacco.dei.cloni.2002.ITA-ENG.BDRip.720p.x264-HD4ME]]></title>
                <link><![CDATA[https://sharemania.us/threads/star-wars-episodio-ii-l-attacco-dei-cloni-2002-ita-eng-bdrip-720p-x264-hd4me.233515/]]></link>
                <description><![CDATA[<article>
<blockquote class="messageText SelectQuoteContainer ugc baseHtml">
<b>Release Name</b><br>
Star.Wars.Episodio.II.L.Attacco.dei.cloni.2002.ITA-ENG.BDRip.720p.x264-HD4ME<br>
<br>
<div class="bbCodeBlock bbCodeCode">
<div class="type">Code:</div>
<pre>General
Unique ID                                : 139861855035106953857898422890642196365 (0x693869D91A26872FA78AE6472832C78D)
Complete name                            : Star.Wars.Episodio.II.L.Attacco.dei.cloni.2002.ITA-ENG.BDRip.720p.x264-HD4ME.mkv
Format                                   : Matroska
Format version                           : Version 4
File size                                : 2.64 GiB
Duration                                 : 2 h 22 min
Overall bit rate                         : 2 651 kb/s
Frame rate                               : 23.976 FPS
Movie name                               : Star Wars: Episodio II – L’Attacco dei cloni
Encoded date                             : 2023-11-29 12:45:00 UTC
Writing application                      : mkvmerge v38.0.0 ('The Silent Type') 64-bit
Writing library                          : libebml v1.3.9 + libmatroska v1.5.2

Video
ID                                       : 1
Format                                   : AVC
Format/Info                              : Advanced Video Codec
Format profile                           : High@L4.1
Format settings                          : CABAC / 9 Ref Frames
Format settings, CABAC                   : Yes
Format settings, Reference frames        : 9 frames
Codec ID                                 : V_MPEG4/ISO/AVC
Duration                                 : 2 h 22 min
Nominal bit rate                         : 2 200 kb/s
Width                                    : 1 280 pixels
Height                                   : 544 pixels
Display aspect ratio                     : 2.35:1
Frame rate mode                          : Constant
Frame rate                               : 23.976 (24000/1001) FPS
Color space                              : YUV
Chroma subsampling                       : 4:2:0
Bit depth                                : 8 bits
Scan type                                : Progressive
Bits/(Pixel*Frame)                       : 0.132
Writing library                          : x264 core 157 r2935 545de2f
Encoding settings                        : cabac=1 / ref=9 / deblock=1:-2:-2 / analyse=0x3:0x133 / me=umh / subme=10 / psy=1 / psy_rd=1.00:0.15 / mixed_ref=1 / me_range=48 / chroma_me=1 / trellis=2 / 8x8dct=1 / cqm=0 / deadzone=21,11 / fast_pskip=1 / chroma_qp_offset=-3 / threads=6 / lookahead_threads=1 / sliced_threads=0 / nr=0 / decimate=1 / interlaced=0 / bluray_compat=0 / constrained_intra=0 / bframes=12 / b_pyramid=2 / b_adapt=2 / b_bias=0 / direct=3 / weightb=1 / open_gop=0 / weightp=2 / keyint=240 / keyint_min=24 / scenecut=40 / intra_refresh=0 / rc_lookahead=30 / rc=2pass / mbtree=1 / bitrate=2200 / ratetol=1.0 / qcomp=0.60 / qpmin=0 / qpmax=69 / qpstep=4 / cplxblur=20.0 / qblur=0.5 / vbv_maxrate=62500 / vbv_bufsize=78125 / nal_hrd=none / filler=0 / ip_ratio=1.40 / aq=1:1.00
Language                                 : Italian
Default                                  : Yes
Forced                                   : No
Color range                              : Limited
Color primaries                          : BT.709
Transfer characteristics                 : BT.709
Matrix coefficients                      : BT.709
Statistics Tags Issue                    : mkvmerge v38.0.0 ('The Silent Type') 64-bit 2020-01-13 21:14:49 / mkvmerge v38.0.0 ('The Silent Type') 64-bit 2023-11-29 12:45:00
FromStats_BitRate                        : 2199608
FromStats_Duration                       : 02:22:27.873000000
FromStats_FrameCount                     : 204944
FromStats_StreamSize                     : 2350246898

Audio #1
ID                                       : 2
Format                                   : AAC LC
Format/Info                              : Advanced Audio Codec Low Complexity
Codec ID                                 : 2 / A_AAC-2
Duration                                 : 2 h 22 min
Channel(s)                               : 6 channels
Channel layout                           : C L R Ls Rs LFE
Sampling rate                            : 48.0 kHz
Frame rate                               : 46.875 FPS (1024 SPF)
Compression mode                         : Lossy
Delay relative to video                  : 3 ms
Title                                    : ITA AAC 5.1 224 kbps
Language                                 : Italian
Default                                  : Yes
Forced                                   : No
Statistics Tags Issue                    : mkvmerge v38.0.0 ('The Silent Type') 64-bit 2020-01-13 21:14:49 / mkvmerge v38.0.0 ('The Silent Type') 64-bit 2023-11-29 12:45:00
FromStats_BitRate                        : 224000
FromStats_Duration                       : 02:22:27.840000000
FromStats_FrameCount                     : 400680
FromStats_StreamSize                     : 239339521

Audio #2
ID                                       : 3
Format                                   : AAC LC
Format/Info                              : Advanced Audio Codec Low Complexity
Codec ID                                 : 2 / A_AAC-2
Duration                                 : 2 h 22 min
Channel(s)                               : 6 channels
Channel layout                           : C L R Ls Rs LFE
Sampling rate                            : 48.0 kHz
Frame rate                               : 46.875 FPS (1024 SPF)
Compression mode                         : Lossy
Delay relative to video                  : 3 ms
Title                                    : ENG AAC 5.1 224 kbps
Language                                 : English
Default                                  : No
Forced                                   : No
Statistics Tags Issue                    : mkvmerge v38.0.0 ('The Silent Type') 64-bit 2020-01-13 21:14:49 / mkvmerge v38.0.0 ('The Silent Type') 64-bit 2023-11-29 12:45:00
FromStats_BitRate                        : 224000
FromStats_Duration                       : 02:22:27.840000000
FromStats_FrameCount                     : 400680
FromStats_StreamSize                     : 239339521

Text #1
ID                                       : 4
Format                                   : UTF-8
Codec ID                                 : S_TEXT/UTF8
Codec ID/Info                            : UTF-8 Plain Text
Title                                    : Italian Regular
Language                                 : Italian
Default                                  : No
Forced                                   : No
Statistics Tags Issue                    : mkvmerge v38.0.0 ('The Silent Type') 64-bit 2020-01-13 21:14:49 / mkvmerge v38.0.0 ('The Silent Type') 64-bit 2023-11-29 12:45:00
FromStats_BitRate                        : 41
FromStats_Duration                       : 02:22:03.079000000
FromStats_FrameCount                     : 1233
FromStats_StreamSize                     : 44315

Text #2
ID                                       : 5
Format                                   : UTF-8
Codec ID                                 : S_TEXT/UTF8
Codec ID/Info                            : UTF-8 Plain Text
Title                                    : English Regular
Language                                 : English
Default                                  : No
Forced                                   : No
Statistics Tags Issue                    : mkvmerge v38.0.0 ('The Silent Type') 64-bit 2020-01-13 21:14:49 / mkvmerge v38.0.0 ('The Silent Type') 64-bit 2023-11-29 12:45:00
FromStats_BitRate                        : 39
FromStats_Duration                       : 02:20:10.192000000
FromStats_FrameCount                     : 1213
FromStats_StreamSize                     : 41628

Menu
00:00:00.000                             : Chapter 01
00:00:23.440                             : Chapter 03
00:01:50.527                             : Chapter 05
00:04:22.095                             : Chapter 07
00:07:00.002                             : Chapter 09
00:10:28.961                             : Chapter 11
00:14:19.900                             : Chapter 13
00:21:35.293                             : Chapter 15
00:24:48.236                             : Chapter 17
00:29:45.867                             : Chapter 19
00:31:33.474                             : Chapter 21
00:33:48.526                             : Chapter 23
00:34:50.505                             : Chapter 25
00:36:05.121                             : Chapter 27
00:38:25.928                             : Chapter 29
00:39:25.362                             : Chapter 31
00:40:56.370                             : Chapter 33
00:42:12.780                             : Chapter 35
00:44:02.014                             : Chapter 37
00:45:50.414                             : Chapter 39
00:47:50.075                             : Chapter 41
00:50:21.017                             : Chapter 43
00:53:01.428                             : Chapter 45
00:56:44.818                             : Chapter 47
00:58:56.699                             : Chapter 49
01:00:46.059                             : Chapter 51
01:03:41.192                             : Chapter 53
01:06:24.355                             : Chapter 55
01:11:18.774                             : Chapter 57
01:14:01.353                             : Chapter 59
01:15:23.477                             : Chapter 61
01:17:48.872                             : Chapter 63
01:21:40.353                             : Chapter 65
01:23:46.896                             : Chapter 67
01:28:10.159                             : Chapter 69
01:30:52.905                             : Chapter 71
01:33:38.487                             : Chapter 73
01:35:27.847                             : Chapter 75
01:42:44.867                             : Chapter 77
01:45:14.016                             : Chapter 79
01:49:53.628                             : Chapter 81
01:56:22.475                             : Chapter 83
01:57:47.602                             : Chapter 85
02:00:29.180                             : Chapter 87
02:04:48.981                             : Chapter 89
02:07:41.945                             : Chapter 91
02:11:23.667                             : Chapter 93
02:12:54.883                             : Chapter 95
02:14:49.247                             : Chapter 97
02:15:54.938                             : Chapter 99
02:22:27.622                             : Chapter 100
</pre>
</div>
<div class="messageTextEndMarker">&nbsp;</div>
</blockquote>
</article>]]></description>
                <author><![CDATA[Austin Zimmermann]]></author>
                </item>

                
                <item>
                <title><![CDATA[【Cinema Center】MOVIE - Ice Age: Dawn of the Dinosaurs (2009) (DVD9 NTSC R1)]]></title>
                <link><![CDATA[https://sharemania.us/threads/ice-age-dawn-of-the-dinosaurs-2009-dvd9-ntsc-r1.233514/]]></link>
                <description><![CDATA[<article>
<blockquote class="messageText SelectQuoteContainer ugc baseHtml">
<div class="bbCodeBlock bbCodeCode">
<div class="type">Code:</div>
<pre>General
Complete name                            : ICE_AGE_3.iso
Format                                   : ISO 9660 / DVD Video
Format profile                           : Program
File size                                : 6.14 GiB
Duration                                 : 1 h 33 min
Overall bit rate mode                    : Variable
Overall bit rate                         : 9 356 kb/s
Frame rate                               : 29.970 FPS
Movie name                               : ICE_AGE_3
Encoded date                             : 2009-08-13 14:50:02.00+09:00

Video
ID                                       : 224 (0xE0)
Format                                   : MPEG Video
Format version                           : Version 2
Format profile                           : Main@Main
Format settings                          : CustomMatrix / BVOP
Format settings, BVOP                    : Yes
Format settings, Matrix                  : Custom
Format settings, GOP                     : Variable
Duration                                 : 1 h 33 min
Bit rate mode                            : Variable
Bit rate                                 : 7 941 kb/s
Maximum bit rate                         : 9 800 kb/s
Width                                    : 720 pixels
Height                                   : 480 pixels
Display aspect ratio                     : 16:9
Frame rate                               : 29.970 (29970/1000) FPS
Original frame rate                      : 23.976 (24000/1001) FPS
Standard                                 : Component
Color space                              : YUV
Chroma subsampling                       : 4:2:0
Bit depth                                : 8 bits
Scan type                                : Progressive
Scan order                               : 2:3 Pulldown
Compression mode                         : Lossy
Bits/(Pixel*Frame)                       : 0.767
Time code of first frame                 : 00:59:59;00
Time code source                         : Group of pictures header
Stream size                              : 5.21 GiB (85%)
Color primaries                          : BT.601 NTSC
Transfer characteristics                 : BT.601
Matrix coefficients                      : BT.601
Source                                   : VIDEO_TS/VTS_02_0.IFO

Audio #1
ID                                       : 189 (0xBD)-128 (0x80)
Format                                   : AC-3
Format/Info                              : Audio Coding 3
Commercial name                          : Dolby Digital
Muxing mode                              : DVD-Video
Duration                                 : 1 h 33 min
Bit rate mode                            : Constant
Bit rate                                 : 448 kb/s
Channel(s)                               : 6 channels
Channel layout                           : L R C LFE Ls Rs
Sampling rate                            : 48.0 kHz
Frame rate                               : 31.250 FPS (1536 SPF)
Compression mode                         : Lossy
Stream size                              : 301 MiB (5%)
Language                                 : English
Service kind                             : Complete Main
Source                                   : VIDEO_TS/VTS_02_0.IFO

Audio #2
ID                                       : 189 (0xBD)-129 (0x81)
Format                                   : AC-3
Format/Info                              : Audio Coding 3
Commercial name                          : Dolby Digital
Format settings                          : Dolby Surround
Muxing mode                              : DVD-Video
Duration                                 : 1 h 33 min
Bit rate mode                            : Constant
Bit rate                                 : 192 kb/s
Channel(s)                               : 2 channels
Channel layout                           : L R
Sampling rate                            : 48.0 kHz
Frame rate                               : 31.250 FPS (1536 SPF)
Compression mode                         : Lossy
Stream size                              : 129 MiB (2%)
Language                                 : French
Service kind                             : Complete Main
Source                                   : VIDEO_TS/VTS_02_0.IFO

Audio #3
ID                                       : 189 (0xBD)-130 (0x82)
Format                                   : AC-3
Format/Info                              : Audio Coding 3
Commercial name                          : Dolby Digital
Format settings                          : Dolby Surround
Muxing mode                              : DVD-Video
Duration                                 : 1 h 33 min
Bit rate mode                            : Constant
Bit rate                                 : 192 kb/s
Channel(s)                               : 2 channels
Channel layout                           : L R
Sampling rate                            : 48.0 kHz
Frame rate                               : 31.250 FPS (1536 SPF)
Compression mode                         : Lossy
Stream size                              : 129 MiB (2%)
Language                                 : Spanish
Service kind                             : Complete Main
Source                                   : VIDEO_TS/VTS_02_0.IFO

Audio #4
ID                                       : 189 (0xBD)-131 (0x83)
Format                                   : AC-3
Format/Info                              : Audio Coding 3
Commercial name                          : Dolby Digital
Muxing mode                              : DVD-Video
Duration                                 : 1 h 33 min
Bit rate mode                            : Constant
Bit rate                                 : 192 kb/s
Channel(s)                               : 2 channels
Channel layout                           : L R
Sampling rate                            : 48.0 kHz
Frame rate                               : 31.250 FPS (1536 SPF)
Compression mode                         : Lossy
Stream size                              : 129 MiB (2%)
Language                                 : English
Language, more info                      : Director's comments
Service kind                             : Complete Main
Source                                   : VIDEO_TS/VTS_02_0.IFO

Text #1
ID                                       : 189 (0xBD)-32 (0x20)
Format                                   : RLE
Format/Info                              : Run-length encoding
Muxing mode                              : DVD-Video
Duration                                 : 1 h 33 min
Bit depth                                : 2 bits
Language                                 : English
Source                                   : VIDEO_TS/VTS_02_0.IFO

Text #2
ID                                       : 189 (0xBD)-33 (0x21)
Format                                   : RLE
Format/Info                              : Run-length encoding
Muxing mode                              : DVD-Video
Duration                                 : 1 h 33 min
Bit depth                                : 2 bits
Language                                 : Spanish
Language, more info                      : Normal
Source                                   : VIDEO_TS/VTS_02_0.IFO

Text #3
ID                                       : 189 (0xBD)-34 (0x22)
Format                                   : RLE
Format/Info                              : Run-length encoding
Muxing mode                              : DVD-Video
Duration                                 : 1 h 33 min
Bit depth                                : 2 bits
Language                                 : Spanish
Language, more info                      : Normal
Source                                   : VIDEO_TS/VTS_02_0.IFO

Menu
Duration                                 : 1 h 33 min
00:00:00.000                             : Chapter 1
00:03:09.667                             : Chapter 2
00:10:37.200                             : Chapter 3
00:16:03.667                             : Chapter 4
00:19:58.333                             : Chapter 5
00:24:05.200                             : Chapter 6
00:27:27.000                             : Chapter 7
00:31:44.667                             : Chapter 8
00:36:07.333                             : Chapter 9
00:41:08.167                             : Chapter 10
00:48:25.167                             : Chapter 11
00:50:42.333                             : Chapter 12
00:56:58.667                             : Chapter 13
00:58:01.500                             : Chapter 14
01:03:06.500                             : Chapter 15
01:08:00.000                             : Chapter 16
01:11:31.833                             : Chapter 17
01:15:54.833                             : Chapter 18
01:20:59.200                             : Chapter 19
01:26:43.867                             : Chapter 20
01:33:57.333                             : Chapter 21
List (Audio)                             : 0 / 1 / 2 / 3
List (Subtitles 4/3)                     : 0 / 0 / 0
List (Subtitles Wide)                    : 0 / 2 / 
List (Subtitles Letterbox)               : 1 /  / 
List (Subtitles Pan&amp;Scan)                : 0 / 0 / 0
Source                                   : VIDEO_TS/VTS_02_0.IFO
</pre>
</div><b>Download</b><br>
<ul>
<li><a href="https://gofile.io/d/u20bfX" target="_blank" class="externalLink" rel="nofollow">https://gofile.io/d/u20bfX</a></li>
</ul>
<div class="messageTextEndMarker">&nbsp;</div>
</blockquote>
</article>]]></description>
                <author><![CDATA[Austin Zimmermann]]></author>
                </item>

                
                <item>
                <title><![CDATA[【Cinema Center】MOVIE - LEGO Hero Factory: Savage Planet (2011) (DVD9 NTSC R1)]]></title>
                <link><![CDATA[https://sharemania.us/threads/lego-hero-factory-savage-planet-2011-dvd9-ntsc-r1.233513/]]></link>
                <description><![CDATA[<article>
<blockquote class="messageText SelectQuoteContainer ugc baseHtml">
<div class="bbCodeBlock bbCodeCode">
<div class="type">Code:</div>
<pre>General
Complete name                            : LEGO_HERO_FACTORY_SAVAGEPLANET.iso
Format                                   : ISO 9660 / DVD Video
Format profile                           : Program
File size                                : 3.14 GiB
Duration                                 : 1 h 7 min
Overall bit rate mode                    : Variable
Overall bit rate                         : 6 653 kb/s
Frame rate                               : 29.970 FPS
Movie name                               : LEGO_HERO_FACTORY_SAVAGEPLANET
Publisher                                : WARNER HOME VIDEO
Encoded date                             : 2011-08-05 16:49:02.00+57:00

Video
ID                                       : 224 (0xE0)
Format                                   : MPEG Video
Format version                           : Version 2
Format profile                           : Main@Main
Format settings                          : CustomMatrix / BVOP
Format settings, BVOP                    : Yes
Format settings, Matrix                  : Custom
Format settings, GOP                     : M=3, N=12
Duration                                 : 1 h 7 min
Bit rate mode                            : Variable
Maximum bit rate                         : 7 500 kb/s
Width                                    : 720 pixels
Height                                   : 480 pixels
Display aspect ratio                     : 16:9
Frame rate                               : 29.970 (29970/1000) FPS
Original frame rate                      : 23.976 (24000/1001) FPS
Standard                                 : NTSC
Color space                              : YUV
Chroma subsampling                       : 4:2:0
Bit depth                                : 8 bits
Scan type                                : Progressive
Scan order                               : 2:3 Pulldown
Compression mode                         : Lossy
Time code of first frame                 : 00:59:58;00
Time code source                         : Group of pictures header
GOP, Open/Closed                         : Open
GOP, Open/Closed of first frame          : Closed
Source                                   : VIDEO_TS/VTS_01_0.IFO

Audio #1
ID                                       : 189 (0xBD)-128 (0x80)
Format                                   : AC-3
Format/Info                              : Audio Coding 3
Commercial name                          : Dolby Digital
Muxing mode                              : DVD-Video
Duration                                 : 1 h 7 min
Bit rate mode                            : Constant
Bit rate                                 : 384 kb/s
Channel(s)                               : 6 channels
Channel layout                           : L R C LFE Ls Rs
Sampling rate                            : 48.0 kHz
Frame rate                               : 31.250 FPS (1536 SPF)
Compression mode                         : Lossy
Delay relative to video                  : -17 ms
Stream size                              : 186 MiB (6%)
Language                                 : English
Service kind                             : Complete Main
Source                                   : VIDEO_TS/VTS_01_0.IFO

Audio #2
ID                                       : 189 (0xBD)-129 (0x81)
Format                                   : AC-3
Format/Info                              : Audio Coding 3
Commercial name                          : Dolby Digital
Format settings                          : Dolby Surround
Muxing mode                              : DVD-Video
Duration                                 : 1 h 7 min
Bit rate mode                            : Constant
Bit rate                                 : 192 kb/s
Channel(s)                               : 2 channels
Channel layout                           : L R
Sampling rate                            : 48.0 kHz
Frame rate                               : 31.250 FPS (1536 SPF)
Compression mode                         : Lossy
Delay relative to video                  : -17 ms
Stream size                              : 92.8 MiB (3%)
Language                                 : French
Service kind                             : Complete Main
Source                                   : VIDEO_TS/VTS_01_0.IFO

Audio #3
ID                                       : 189 (0xBD)-130 (0x82)
Format                                   : AC-3
Format/Info                              : Audio Coding 3
Commercial name                          : Dolby Digital
Format settings                          : Dolby Surround
Muxing mode                              : DVD-Video
Duration                                 : 1 h 7 min
Bit rate mode                            : Constant
Bit rate                                 : 192 kb/s
Channel(s)                               : 2 channels
Channel layout                           : L R
Sampling rate                            : 48.0 kHz
Frame rate                               : 31.250 FPS (1536 SPF)
Compression mode                         : Lossy
Delay relative to video                  : -17 ms
Stream size                              : 92.8 MiB (3%)
Language                                 : Portuguese
Service kind                             : Complete Main
Source                                   : VIDEO_TS/VTS_01_0.IFO

Audio #4
ID                                       : 189 (0xBD)-131 (0x83)
Format                                   : AC-3
Format/Info                              : Audio Coding 3
Commercial name                          : Dolby Digital
Format settings                          : Dolby Surround
Muxing mode                              : DVD-Video
Duration                                 : 1 h 7 min
Bit rate mode                            : Constant
Bit rate                                 : 192 kb/s
Channel(s)                               : 2 channels
Channel layout                           : L R
Sampling rate                            : 48.0 kHz
Frame rate                               : 31.250 FPS (1536 SPF)
Compression mode                         : Lossy
Delay relative to video                  : -17 ms
Stream size                              : 92.8 MiB (3%)
Language                                 : Spanish
Service kind                             : Complete Main
Source                                   : VIDEO_TS/VTS_01_0.IFO

Audio #5
ID                                       : 189 (0xBD)-132 (0x84)
Format                                   : AC-3
Format/Info                              : Audio Coding 3
Duration                                 : 1 h 7 min
Channel(s)                               : 2 channels
Sampling rate                            : 48.0 kHz
Compression mode                         : Lossy
Language                                 : English
Source                                   : VIDEO_TS/VTS_01_0.IFO

Text #1
ID                                       : 189 (0xBD)-32 (0x20)
Format                                   : RLE
Format/Info                              : Run-length encoding
Muxing mode                              : DVD-Video
Duration                                 : 1 h 7 min
Bit depth                                : 2 bits
Delay relative to video                  : 2 s 553 ms
Language                                 : English
Source                                   : VIDEO_TS/VTS_01_0.IFO

Text #2
ID                                       : 189 (0xBD)-33 (0x21)
Format                                   : RLE
Format/Info                              : Run-length encoding
Muxing mode                              : DVD-Video
Duration                                 : 1 h 7 min
Bit depth                                : 2 bits
Delay relative to video                  : 2 s 553 ms
Language                                 : Portuguese
Source                                   : VIDEO_TS/VTS_01_0.IFO

Text #3
ID                                       : 189 (0xBD)-34 (0x22)
Format                                   : RLE
Format/Info                              : Run-length encoding
Muxing mode                              : DVD-Video
Duration                                 : 1 h 7 min
Bit depth                                : 2 bits
Delay relative to video                  : 2 s 553 ms
Language                                 : Spanish
Source                                   : VIDEO_TS/VTS_01_0.IFO

Menu #1
Duration                                 : 44 min 31 s
00:00:00.000                             : Chapter 1
00:00:32.333                             : Chapter 2
00:08:14.033                             : Chapter 3
00:16:39.000                             : Chapter 4
00:30:03.200                             : Chapter 5
00:35:51.867                             : Chapter 6
00:43:59.500                             : Chapter 7
00:44:31.000                             : Chapter 8
List (Audio)                             : 0 / 1 / 2 / 3
List (Subtitles 4/3)                     : 0 / 0 / 0
List (Subtitles Wide)                    : 0 / 2 / 
List (Subtitles Letterbox)               : 1 /  / 
List (Subtitles Pan&amp;Scan)                : 0 / 0 / 0
Source                                   : VIDEO_TS/VTS_01_0.IFO

Menu #2
Duration                                 : 23 min 1 s
00:00:00.000                             : Chapter 1
00:00:31.200                             : Chapter 2
00:08:28.467                             : Chapter 3
00:16:51.000                             : Chapter 4
00:22:29.833                             : Chapter 5
List (Audio)                             : 4
List (Subtitles 4/3)                     : 0 / 0 / 0
List (Subtitles Wide)                    : 0 / 2 / 
List (Subtitles Letterbox)               : 1 /  / 
List (Subtitles Pan&amp;Scan)                : 0 / 0 / 0
Source                                   : VIDEO_TS/VTS_01_0.IFO
</pre>
</div><b>Download</b><br>
<ul>
<li><a href="https://gofile.io/d/TuPjFn" target="_blank" class="externalLink" rel="nofollow">https://gofile.io/d/TuPjFn</a></li>
</ul>
<div class="messageTextEndMarker">&nbsp;</div>
</blockquote>
</article>]]></description>
                <author><![CDATA[Austin Zimmermann]]></author>
                </item>

                </channel></rss>